<?xml version="1.0" encoding="UTF-8"?> <svg xmlns="http://www.w3.org/2000/svg" xmlns:xlink="http://www.w3.org/1999/xlink" id="Capa_1" x="0px" y="0px" viewBox="0 0 480 480" style="enable-background:new 0 0 480 480;" xml:space="preserve" width="512px" height="512px" class=""><g><g> <g> <path d="M349.656,218.344L296,164.688V144h8c4.418,0,8-3.582,8-8V88c0-8.837-7.163-16-16-16h-24V32c0-17.673-14.327-32-32-32 c-17.673,0-32,14.327-32,32v40h-24c-8.837,0-16,7.163-16,16v48c0,4.418,3.582,8,8,8h8v20.688l-53.656,53.656 c-1.5,1.5-2.344,3.534-2.344,5.656v224c0,17.673,14.327,32,32,32h160c17.673,0,32-14.327,32-32V224 C352,221.878,351.156,219.844,349.656,218.344z M224,32c0-8.837,7.163-16,16-16s16,7.163,16,16v40h-32V32z M184,88h16v32h16V88h16 v32h16V88h16v32h16V88h16v40H184V88z M336,448c0,8.837-7.163,16-16,16H160c-8.837,0-16-7.163-16-16V227.312l53.656-53.656 c1.5-1.5,2.344-3.534,2.344-5.656h48v-16h-48v-8h80v8h-16v16h16c0,2.122,0.844,4.156,2.344,5.656L336,227.312V448z" data-original="#000000" class="active-path" data-old_color="#ffb800" fill="#ffb800"></path> </g> </g><g> <g> <rect x="160" y="432" width="160" height="16" data-original="#000000" class="active-path" data-old_color="#ffb800" fill="#ffb800"></rect> </g> </g><g> <g> <rect x="248" y="232" width="16" height="16" data-original="#000000" class="active-path" data-old_color="#ffb800" fill="#ffb800"></rect> </g> </g><g> <g> <path d="M304,232h-24v16h16v128H184V248h48v-16h-56c-4.418,0-8,3.582-8,8v144c0,4.418,3.582,8,8,8h128c4.418,0,8-3.582,8-8V240 C312,235.582,308.418,232,304,232z" data-original="#000000" class="active-path" data-old_color="#ffb800" fill="#ffb800"></path> </g> </g></g> </svg> 